<svg xmlns="http://www.w3.org/2000/svg" width="20" height="22" fill="none"><path fill="#fff" fill-rule="evenodd" d="M1.296 4.535 9.297.179a1.471 1.471 0 0 1 1.406 0l8.001 4.356a.41.41 0 0 1-.003.724l-8.01 4.273c-.431.23-.951.23-1.383 0L1.298 5.26a.41.41 0 0 1-.002-.724ZM0 7.495c0-.31.335-.51.613-.363l7.574 4.005c.475.251.771.74.771 1.273v9.16a.417.417 0 0 1-.62.36L.744 17.705A1.441 1.441 0 0 1 0 16.447V7.495Zm11.655 14.456a.417.417 0 0 1-.613-.364v-8.95c0-.522.284-1.004.744-1.26l7.593-4.224a.417.417 0 0 1 .621.36v9.16c0 .532-.297 1.022-.771 1.273l-7.574 4.005Z" clip-rule="evenodd"/></svg>