<svg xmlns="http://www.w3.org/2000/svg" width="20" height="20" fill="none"><path fill="#A73AFD" fill-rule="evenodd" opacity=".24" d="M3.071 1.668H16.93c.225 0 .442 0 .625.015.2.017.437.057.673.183.324.174.582.451.732.787.11.244.133.484.135.684.002.183-.013.4-.03.624l-.646 9.053c-.014.197-.028.39-.052.552a1.68 1.68 0 0 1-.196.598 1.667 1.667 0 0 1-.721.671 1.67 1.67 0 0 1-.61.153c-.165.013-.358.013-.555.013h-5.45v1.667h4.583a.833.833 0 0 1 0 1.667H4.584a.833.833 0 1 1 0-1.667h4.583v-1.667h-5.45c-.197 0-.39 0-.555-.013a1.679 1.679 0 0 1-.61-.152 1.667 1.667 0 0 1-.721-.672 1.68 1.68 0 0 1-.196-.598 7.401 7.401 0 0 1-.053-.552L.936 3.961c-.016-.224-.032-.44-.03-.624.003-.2.026-.44.135-.684.15-.336.408-.613.733-.787a1.69 1.69 0 0 1 .672-.183c.183-.015.4-.015.625-.015Z" clip-rule="evenodd"/></svg>
