<svg xmlns="http://www.w3.org/2000/svg" width="20" height="20" fill="none"><path fill="#A73AFD" fill-rule="evenodd" opacity=".24" d="M15.008 5.526a7.332 7.332 0 0 0-.855-.824l.154-1.784a.917.917 0 0 0-.676-.964l-3.443-.923a.917.917 0 0 0-1.067.497L8.362 3.15a7.26 7.26 0 0 0-1.154.285L5.492 2.268a.917.917 0 0 0-1.164.11l-2.76 2.76a.917.917 0 0 0-.11 1.163l1.168 1.716c-.098.29-.178.587-.239.891l-1.869.903a.917.917 0 0 0-.487 1.063l1.01 3.77a.916.916 0 0 0 .953.676l2.072-.152c.262.297.548.573.855.824l-.154 1.784a.917.917 0 0 0 .676.964l3.443.922a.917.917 0 0 0 1.067-.496l.76-1.622a7.26 7.26 0 0 0 1.154-.285l1.716 1.166a.917.917 0 0 0 1.164-.11l2.76-2.759a.917.917 0 0 0 .109-1.163l-1.167-1.717c.097-.289.177-.586.238-.89l1.87-.903a.917.917 0 0 0 .486-1.063l-1.01-3.77a.917.917 0 0 0-.953-.677l-2.072.153ZM8 10.666C8 9.747 8.746 9 9.667 9h.008a1.667 1.667 0 1 1 0 3.333h-.008c-.92 0-1.667-.746-1.667-1.666Z" clip-rule="evenodd"/></svg>
